# File created by Blade
# Date/Time:  Thu Jan 22 19:09:08 2015
#---------------------------------------------------------
:version 1.10
:name HOM
:units
  mass 1.0
  length 1.000000
  angle deg
:documentation
     Acclaim Skeleton File
:root
   axis xyz
   order TX TY TZ RX RY RZ
   position 0.000000 0.000000 0.000000
   orientation 0 0 0
:bonedata
   begin
      id 1
      name RightUpLeg_dum
      direction -1.000000 0.000000 0.000000
      length 4.478084
      axis 0.0 0.0 0.0 xyz
   end
   begin
      id 2
      name LeftUpLeg_dum
      direction 1.000000 0.000000 0.000000
      length 4.478084
      axis 0.0 0.0 0.0 xyz
   end
   begin
      id 3
      name Spine_dum
      direction 0.000000 1.000000 0.000000
      length 6.068208
      axis 0.0 0.0 0.0 xyz
   end
   begin
      id 4
      name RightUpLeg
      direction 0.000000 -1.000000 0.000000
      length 16.405774
      axis 0.0 0.0 0.0 xyz
      dof rx ry rz
   end
   begin
      id 5
      name RightLeg
      direction 0.000000 -1.000000 0.000000
      length 14.644143
      axis 0.0 0.0 0.0 xyz
      dof rx ry rz
   end
   begin
      id 6
      name RightFoot
      direction 0.000000 -0.258819 0.965926
      length 5.806150
      axis 15.0 0.0 0.0 xyz
      dof rx ry rz
   end
   begin
      id 7
      name RightToeBase
      direction 0.000000 0.000000 1.000000
      length 2.952750
      axis 0.0 0.0 0.0 xyz
      dof rx ry rz
   end
   begin
      id 8
      name LeftUpLeg
      direction 0.000000 -1.000000 0.000000
      length 16.405774
      axis 0.0 0.0 0.0 xyz
      dof rx ry rz
   end
   begin
      id 9
      name LeftLeg
      direction 0.000000 -1.000000 0.000000
      length 14.644143
      axis 0.0 0.0 0.0 xyz
      dof rx ry rz
   end
   begin
      id 10
      name LeftFoot
      direction 0.000000 -0.258819 0.965926
      length 5.806150
      axis 15.0 0.0 0.0 xyz
      dof rx ry rz
   end
   begin
      id 11
      name LeftToeBase
      direction 0.000000 0.000000 1.000000
      length 2.952750
      axis 0.0 0.0 0.0 xyz
      dof rx ry rz
   end
   begin
      id 12
      name Spine
      direction 0.000000 1.000000 0.000000
      length 0.000000
      axis 0.0 0.0 0.0 xyz
      dof rx ry rz
   end
   begin
      id 13
      name Spine_dum1
      direction 0.000000 1.000000 0.000000
      length 10.013923
      axis 0.0 0.0 0.0 xyz
   end
   begin
      id 14
      name Spine_dum2
      direction 0.000000 1.000000 0.000000
      length 10.013923
      axis 0.0 0.0 0.0 xyz
   end
   begin
      id 15
      name Spine_dum3
      direction 0.000000 1.000000 0.000000
      length 15.777476
      axis 0.0 0.0 0.0 xyz
   end
   begin
      id 16
      name RightShoulder
      direction -1.000000 0.000000 0.000000
      length 7.190220
      axis 0.0 0.0 90.0 xyz
      dof rx ry rz
   end
   begin
      id 17
      name RightArm
      direction -1.000000 0.000000 0.000000
      length 10.177469
      axis 0.0 0.0 90.0 xyz
      dof rx ry rz
   end
   begin
      id 18
      name RightForeArm
      direction -1.000000 0.000000 0.000000
      length 8.392114
      axis 0.0 0.0 90.0 xyz
      dof ry rz rx
   end
   begin
      id 19
      name RightHand
      direction -1.000000 0.000000 0.000000
      length 0.000000
      axis 0.0 0.0 90.0 xyz
      dof rx ry rz
   end
   begin
      id 20
      name RightHand_dum1
      direction -1.000000 0.000000 0.000000
      length 3.937000
      axis 0.0 0.0 90.0 xyz
   end
   begin
      id 21
      name RightHand_dum2
      direction 0.000000 0.000000 0.000000
      length 0.000000
      axis 0.0 0.0 90.0 xyz
   end
   begin
      id 22
      name RightHandThumb1
      direction 0.000000 0.000000 1.000000
      length 3.937000
      axis 0.0 0.0 90.0 xyz
      dof rx rz ry
   end
   begin
      id 23
      name LeftShoulder
      direction 1.000000 0.000000 0.000000
      length 7.190220
      axis 0.0 0.0 -90.0 xyz
      dof rx ry rz
   end
   begin
      id 24
      name LeftArm
      direction 1.000000 0.000000 0.000000
      length 10.177469
      axis 0.0 0.0 -90.0 xyz
      dof rx ry rz
   end
   begin
      id 25
      name LeftForeArm
      direction 1.000000 0.000000 0.000000
      length 8.392114
      axis 0.0 0.0 -90.0 xyz
      dof ry rz rx
   end
   begin
      id 26
      name LeftHand
      direction 1.000000 0.000000 0.000000
      length 0.000000
      axis 0.0 0.0 -90.0 xyz
      dof rx ry rz
   end
   begin
      id 27
      name LeftHand_dum1
      direction 1.000000 0.000000 0.000000
      length 3.937000
      axis 0.0 0.0 -90.0 xyz
   end
   begin
      id 28
      name LeftHand_dum2
      direction 0.000000 0.000000 0.000000
      length 0.000000
      axis 0.0 0.0 -90.0 xyz
   end
   begin
      id 29
      name LeftHandThumb1
      direction 0.000000 0.000000 1.000000
      length 3.937000
      axis 0.0 0.0 -90.0 xyz
      dof rx rz ry
   end
   begin
      id 30
      name Head
      direction 0.000000 1.000000 0.000000
      length 4.527550
      axis 0.0 0.0 0.0 xyz
      dof rx ry rz
   end
:hierarchy
   begin
      root RightUpLeg_dum LeftUpLeg_dum Spine_dum
      RightUpLeg_dum RightUpLeg
      LeftUpLeg_dum LeftUpLeg
      Spine_dum Spine
      RightUpLeg RightLeg
      RightLeg RightFoot
      RightFoot RightToeBase
      LeftUpLeg LeftLeg
      LeftLeg LeftFoot
      LeftFoot LeftToeBase
      Spine Spine_dum1 Spine_dum2 Spine_dum3
      Spine_dum1 RightShoulder
      Spine_dum2 LeftShoulder
      Spine_dum3 Head
      RightShoulder RightArm
      RightArm RightForeArm
      RightForeArm RightHand
      RightHand RightHand_dum1 RightHand_dum2
      RightHand_dum2 RightHandThumb1
      LeftShoulder LeftArm
      LeftArm LeftForeArm
      LeftForeArm LeftHand
      LeftHand LeftHand_dum1 LeftHand_dum2
      LeftHand_dum2 LeftHandThumb1
   end

# File created by Blade
# Date/Time:  Thu Jan 22 19:08:58 2015
# Frame Rate: 120.000 fps
#------------------------------------------------------
:FULLY-SPECIFIED
:DEGREES
229
root -1.463789 32.795420 -0.297862 19.073836 55.188392 13.658673
RightUpLeg 4.096155 -29.828594 -2.804400
RightLeg 4.292930 -0.000000 -0.000000
RightFoot -22.006278 -28.907293 10.115327
RightToeBase 2.344361 -0.000000 -0.000000
LeftUpLeg -19.214776 -28.300175 3.136377
LeftLeg 8.341239 -0.000000 -0.000000
LeftFoot -3.296441 -16.764085 -6.819168
LeftToeBase 6.967826 -0.000000 -0.000000
Spine -9.022156 24.194493 -5.811364
RightShoulder -10.626461 -7.587689 -32.590117
RightArm 33.985208 16.829562 38.774920
RightForeArm -11.557114 -0.000000 10.293723
RightHand 10.329916 0.000000 8.440001
RightHandThumb1 -24.326973 -0.000000 -32.862282
LeftShoulder -31.053611 16.302905 26.378699
LeftArm 3.639850 -26.797597 -32.442056
LeftForeArm 23.654522 -0.000000 5.090010
LeftHand -1.200676 0.000000 -7.578172
LeftHandThumb1 -26.253704 0.000000 33.147579
Head -1.121762 8.575757 -13.520646
230
root -1.441241 32.785783 -0.316418 19.530648 55.983304 14.143237
RightUpLeg 4.141699 -30.081563 -2.909348
RightLeg 4.541175 -0.000000 -0.000000
RightFoot -22.244210 -29.078931 10.220000
RightToeBase 2.315292 -0.000000 -0.000000
LeftUpLeg -19.415300 -29.442724 3.320753
LeftLeg 8.169692 -0.000000 -0.000000
LeftFoot -3.149043 -16.504625 -7.060753
LeftToeBase 7.099747 -0.000000 -0.000000
Spine -9.057265 24.515696 -5.874932
RightShoulder -10.517968 -7.263535 -32.733217
RightArm 34.344423 16.799002 39.184141
RightForeArm -11.981621 -0.000000 10.404092
RightHand 10.199647 -0.000000 8.600019
RightHandThumb1 -24.326973 -0.000000 -32.862282
LeftShoulder -31.249510 16.623549 26.186157
LeftArm 3.734390 -27.096457 -32.654845
LeftForeArm 23.608368 0.000000 5.156046
LeftHand -1.161145 -0.000000 -7.506155
LeftHandThumb1 -26.253704 0.000000 33.147579
Head -1.003439 8.717424 -13.602771
231
root -1.421163 32.774912 -0.331915 19.963956 56.820998 14.611486
RightUpLeg 4.266516 -30.428167 -3.001747
RightLeg 4.715152 -0.000000 -0.000000
RightFoot -22.431264 -29.134552 10.323552
RightToeBase 2.265868 -0.000000 -0.000000
LeftUpLeg -19.642066 -30.219998 3.421730
LeftLeg 8.172290 -0.000000 -0.000000
LeftFoot -3.017938 -16.640785 -7.237798
LeftToeBase 7.285383 -0.000000 -0.000000
Spine -9.071401 24.789466 -5.897268
RightShoulder -10.360236 -7.064599 -32.833498
RightArm 34.731846 16.776186 39.481065
RightForeArm -12.156503 -0.000000 10.432798
RightHand 10.156675 0.000000 8.744754
RightHandThumb1 -24.326973 -0.000000 -32.862282
LeftShoulder -31.201894 16.741759 26.155708
LeftArm 3.294863 -27.104687 -32.686295
LeftForeArm 23.302950 -0.000000 5.421731
LeftHand -1.270711 -0.000000 -7.410882
LeftHandThumb1 -26.253704 0.000000 33.147579
Head -0.887540 8.853070 -13.687387
232
root -1.403326 32.763318 -0.346007 20.415465 57.637898 15.090920
RightUpLeg 4.374503 -30.767217 -3.080538
RightLeg 4.891903 -0.000000 -0.000000
RightFoot -22.624448 -29.186522 10.443933
RightToeBase 2.183991 -0.000000 -0.000000
LeftUpLeg -19.853121 -30.714117 3.435278
LeftLeg 8.228977 -0.000000 -0.000000
LeftFoot -2.880276 -16.985613 -7.295820
LeftToeBase 7.399793 -0.000000 -0.000000
Spine -9.095695 25.094559 -5.940056
RightShoulder -10.195052 -6.788910 -32.939697
RightArm 35.024059 16.635655 39.732533
RightForeArm -12.208781 -0.000000 10.464591
RightHand 10.121789 -0.000000 8.584095
RightHandThumb1 -24.326973 -0.000000 -32.862282
LeftShoulder -31.176896 16.867299 26.155544
LeftArm 2.933625 -27.199447 -32.806551
LeftForeArm 23.050444 -0.000000 5.724090
LeftHand -1.428433 0.000000 -7.432903
LeftHandThumb1 -26.253704 0.000000 33.147579
Head -0.771687 9.013166 -13.723228
233
root -1.384483 32.751318 -0.360047 20.899247 58.446217 15.603098
RightUpLeg 4.502086 -31.087258 -3.166162
RightLeg 5.035046 -0.000000 -0.000000
RightFoot -22.838867 -29.214507 10.625002
RightToeBase 2.138706 -0.000000 -0.000000
LeftUpLeg -20.075368 -31.187208 3.435972
LeftLeg 8.313719 -0.000000 -0.000000
LeftFoot -2.756532 -17.344924 -7.333798
LeftToeBase 7.546184 -0.000000 -0.000000
Spine -9.121919 25.427507 -6.009469
RightShoulder -10.084682 -6.683790 -32.947262
RightArm 35.499556 16.604683 39.945080
RightForeArm -12.181625 -0.000000 10.417415
RightHand 10.045532 -0.000000 8.772099
RightHandThumb1 -24.326973 -0.000000 -32.862282
LeftShoulder -31.172706 16.754425 26.322885
LeftArm 2.566545 -27.099453 -32.929021
LeftForeArm 22.781940 -0.000000 5.910117
LeftHand -1.348188 0.000000 -7.429177
LeftHandThumb1 -26.253704 0.000000 33.147579
Head -0.674168 9.088682 -13.775705
234
root -1.369674 32.739209 -0.376625 21.430272 59.247885 16.136011
RightUpLeg 4.569727 -31.368837 -3.218450
RightLeg 5.207338 -0.000000 -0.000000
RightFoot -23.094871 -29.286550 10.861441
RightToeBase 2.009527 -0.000000 -0.000000
LeftUpLeg -20.317339 -31.621737 3.441744
LeftLeg 8.379836 -0.000000 -0.000000
LeftFoot -2.596192 -17.731151 -7.381330
LeftToeBase 7.640952 -0.000000 -0.000000
Spine -9.152550 25.710159 -6.062394
RightShoulder -9.921618 -6.442392 -33.038715
RightArm 35.910506 16.643966 40.311938
RightForeArm -12.434619 0.000000 10.386054
RightHand 10.067747 -0.000000 8.672763
RightHandThumb1 -24.326973 -0.000000 -32.862282
LeftShoulder -31.181132 16.805571 26.374979
LeftArm 2.201441 -27.224655 -33.081544
LeftForeArm 22.551223 -0.000000 6.129218
LeftHand -1.231854 -0.000000 -7.429190
LeftHandThumb1 -26.253704 0.000000 33.147579
Head -0.632203 9.242902 -13.855635
